<svg xmlns="http://www.w3.org/2000/svg" width="3840" height="1080" viewBox="0 0 3840 1080"><defs>
<linearGradient id="sky1" x1="0" y1="0" x2="0" y2="1">
  <stop offset="0" stop-color="#0b0820"/><stop offset="0.45" stop-color="#1c1240"/>
  <stop offset="0.75" stop-color="#3d1e5f"/><stop offset="1" stop-color="#7a2d6b"/>
</linearGradient>
<radialGradient id="neb1a" cx="0.62" cy="0.30" r="0.35">
  <stop offset="0" stop-color="#ff5fa2" stop-opacity="0.55"/>
  <stop offset="0.5" stop-color="#a13fbf" stop-opacity="0.28"/>
  <stop offset="1" stop-color="#a13fbf" stop-opacity="0"/>
</radialGradient>
<radialGradient id="neb1b" cx="0.22" cy="0.5" r="0.3">
  <stop offset="0" stop-color="#4f7cff" stop-opacity="0.35"/>
  <stop offset="1" stop-color="#4f7cff" stop-opacity="0"/>
</radialGradient>
<filter id="soft1"><feGaussianBlur stdDeviation="18"/></filter>
</defs><rect width="3840" height="1080" fill="url(#sky1)"/><rect width="3840" height="1080" fill="url(#neb1b)"/><rect width="3840" height="1080" fill="url(#neb1a)"/><ellipse cx="2438" cy="330" rx="420" ry="150" fill="#ff8fc0" opacity="0.14" filter="url(#soft1)"/><ellipse cx="2304" cy="300" rx="200" ry="70" fill="#ffd0e6" opacity="0.16" filter="url(#soft1)"/><circle cx="3211" cy="287" r="5.1" fill="#ffffff" opacity="0.07"/><circle cx="3211" cy="287" r="2.3" fill="#ffffff" opacity="0.46"/><circle cx="2528" cy="458" r="1.3" fill="#ffffff" opacity="0.58"/><circle cx="163" cy="711" r="0.6" fill="#ffffff" opacity="0.31"/><circle cx="3203" cy="388" r="1.1" fill="#ffffff" opacity="0.41"/><circle cx="1657" cy="512" r="0.9" fill="#ffffff" opacity="0.30"/><circle cx="627" cy="757" r="1.0" fill="#ffffff" opacity="0.88"/><circle cx="3178" cy="852" r="0.8" fill="#ffffff" opacity="0.82"/><circle cx="3567" cy="843" r="0.7" fill="#ffffff" opacity="0.36"/><circle cx="1181" cy="578" r="1.1" fill="#ffffff" opacity="0.74"/><circle cx="611" cy="10" r="0.7" fill="#ffffff" opacity="0.53"/><circle cx="1167" cy="797" r="0.6" fill="#ffffff" opacity="0.69"/><circle cx="1529" cy="802" r="0.7" fill="#ffffff" opacity="0.66"/><circle cx="1874" cy="446" r="1.1" fill="#ffffff" opacity="0.70"/><circle cx="2462" cy="904" r="1.2" fill="#ffffff" opacity="0.46"/><circle cx="2955" cy="728" r="1.4" fill="#ffffff" opacity="0.81"/><circle cx="899" cy="297" r="0.9" fill="#ffffff" opacity="0.80"/><circle cx="1884" cy="152" r="1.1" fill="#ffffff" opacity="0.49"/><circle cx="671" cy="739" r="1.1" fill="#ffffff" opacity="0.82"/><circle cx="934" cy="838" r="0.8" fill="#ffffff" opacity="0.61"/><circle cx="200" cy="118" r="1.2" fill="#ffffff" opacity="0.94"/><circle cx="405" cy="517" r="1.3" fill="#ffffff" opacity="0.40"/><circle cx="31" cy="505" r="0.7" fill="#ffffff" opacity="0.36"/><circle cx="593" cy="383" r="1.1" fill="#ffffff" opacity="0.72"/><circle cx="255" cy="788" r="1.2" fill="#ffffff" opacity="0.60"/><circle cx="3671" cy="839" r="0.7" fill="#ffffff" opacity="0.30"/><circle cx="380" cy="481" r="0.8" fill="#ffffff" opacity="0.28"/><circle cx="2027" cy="112" r="0.9" fill="#ffffff" opacity="0.87"/><circle cx="472" cy="850" r="1.3" fill="#ffffff" opacity="0.34"/><circle cx="1851" cy="251" r="1.3" fill="#ffffff" opacity="0.36"/><circle cx="2816" cy="708" r="0.5" fill="#ffffff" opacity="0.36"/><circle cx="583" cy="409" r="0.7" fill="#ffffff" opacity="0.39"/><circle cx="1474" cy="4" r="1.3" fill="#ffffff" opacity="0.34"/><circle cx="3046" cy="307" r="0.7" fill="#ffffff" opacity="0.53"/><circle cx="2372" cy="97" r="1.3" fill="#ffffff" opacity="0.58"/><circle cx="413" cy="613" r="1.4" fill="#ffffff" opacity="0.65"/><circle cx="3122" cy="887" r="1.3" fill="#ffffff" opacity="0.71"/><circle cx="1928" cy="644" r="0.9" fill="#ffffff" opacity="0.35"/><circle cx="424" cy="809" r="1.1" fill="#ffffff" opacity="0.74"/><circle cx="2981" cy="18" r="0.7" fill="#ffffff" opacity="0.52"/><circle cx="3309" cy="245" r="1.1" fill="#ffffff" opacity="0.74"/><circle cx="2202" cy="218" r="0.7" fill="#ffffff" opacity="0.66"/><circle cx="3616" cy="788" r="0.8" fill="#ffffff" opacity="0.54"/><circle cx="3063" cy="469" r="0.6" fill="#ffffff" opacity="0.52"/><circle cx="1290" cy="169" r="0.6" fill="#ffffff" opacity="0.48"/><circle cx="760" cy="496" r="0.9" fill="#ffffff" opacity="0.49"/><circle cx="159" cy="340" r="1.1" fill="#ffffff" opacity="0.47"/><circle cx="3707" cy="904" r="1.3" fill="#ffffff" opacity="0.79"/><circle cx="3592" cy="182" r="0.7" fill="#ffffff" opacity="0.34"/><circle cx="2819" cy="381" r="0.8" fill="#ffffff" opacity="0.53"/><circle cx="1318" cy="804" r="3.9" fill="#ffffff" opacity="0.14"/><circle cx="1318" cy="804" r="1.8" fill="#ffffff" opacity="0.92"/><circle cx="1036" cy="782" r="0.6" fill="#ffffff" opacity="0.75"/><circle cx="2517" cy="888" r="1.2" fill="#ffffff" opacity="0.90"/><circle cx="3213" cy="864" r="1.0" fill="#ffffff" opacity="0.87"/><circle cx="1170" cy="466" r="1.0" fill="#ffffff" opacity="0.45"/><circle cx="3086" cy="12" r="1.1" fill="#ffffff" opacity="0.69"/><circle cx="831" cy="719" r="0.8" fill="#ffffff" opacity="0.29"/><circle cx="3724" cy="472" r="1.3" fill="#ffffff" opacity="0.36"/><circle cx="2541" cy="581" r="0.8" fill="#ffffff" opacity="0.28"/><circle cx="654" cy="1" r="0.9" fill="#ffffff" opacity="0.61"/><circle cx="389" cy="511" r="1.0" fill="#ffffff" opacity="0.60"/><circle cx="1973" cy="362" r="1.3" fill="#ffffff" opacity="0.75"/><circle cx="1830" cy="141" r="1.1" fill="#ffffff" opacity="0.91"/><circle cx="2099" cy="727" r="1.2" fill="#ffffff" opacity="0.93"/><circle cx="152" cy="727" r="0.8" fill="#ffffff" opacity="0.30"/><circle cx="1022" cy="696" r="1.3" fill="#ffffff" opacity="0.25"/><circle cx="1051" cy="397" r="0.8" fill="#ffffff" opacity="0.67"/><circle cx="1986" cy="330" r="0.8" fill="#ffffff" opacity="0.70"/><circle cx="2435" cy="160" r="1.0" fill="#ffffff" opacity="0.49"/><circle cx="891" cy="633" r="1.2" fill="#ffffff" opacity="0.91"/><circle cx="435" cy="728" r="1.1" fill="#ffffff" opacity="0.31"/><circle cx="2106" cy="693" r="1.3" fill="#ffffff" opacity="0.31"/><circle cx="3574" cy="637" r="4.4" fill="#ffffff" opacity="0.09"/><circle cx="3574" cy="637" r="2.0" fill="#ffffff" opacity="0.62"/><circle cx="46" cy="452" r="1.1" fill="#ffffff" opacity="0.44"/><circle cx="2549" cy="646" r="0.8" fill="#ffffff" opacity="0.80"/><circle cx="1885" cy="711" r="0.9" fill="#ffffff" opacity="0.60"/><circle cx="3130" cy="596" r="1.3" fill="#ffffff" opacity="0.69"/><circle cx="419" cy="305" r="0.7" fill="#ffffff" opacity="0.45"/><circle cx="2633" cy="901" r="0.8" fill="#ffffff" opacity="0.32"/><circle cx="554" cy="401" r="0.9" fill="#ffffff" opacity="0.91"/><circle cx="1039" cy="402" r="1.0" fill="#ffffff" opacity="0.54"/><circle cx="1495" cy="186" r="0.9" fill="#ffffff" opacity="0.28"/><circle cx="2158" cy="458" r="0.5" fill="#ffffff" opacity="0.67"/><circle cx="153" cy="591" r="1.2" fill="#ffffff" opacity="0.60"/><circle cx="3476" cy="865" r="1.0" fill="#ffffff" opacity="0.51"/><circle cx="928" cy="894" r="0.9" fill="#ffffff" opacity="0.32"/><circle cx="1879" cy="300" r="1.0" fill="#ffffff" opacity="0.68"/><circle cx="803" cy="668" r="0.6" fill="#ffffff" opacity="0.71"/><circle cx="207" cy="200" r="1.2" fill="#ffffff" opacity="0.39"/><circle cx="1447" cy="507" r="0.6" fill="#ffffff" opacity="0.93"/><circle cx="819" cy="827" r="0.7" fill="#ffffff" opacity="0.63"/><circle cx="1285" cy="136" r="0.7" fill="#ffffff" opacity="0.75"/><circle cx="3753" cy="319" r="1.4" fill="#ffffff" opacity="0.48"/><circle cx="1178" cy="795" r="0.7" fill="#ffffff" opacity="0.95"/><circle cx="3774" cy="381" r="0.6" fill="#ffffff" opacity="0.74"/><circle cx="1209" cy="133" r="1.4" fill="#ffffff" opacity="0.26"/><circle cx="161" cy="265" r="0.9" fill="#ffffff" opacity="0.35"/><circle cx="2011" cy="827" r="4.3" fill="#ffffff" opacity="0.12"/><circle cx="2011" cy="827" r="2.0" fill="#ffffff" opacity="0.78"/><circle cx="1206" cy="408" r="0.9" fill="#ffffff" opacity="0.47"/><circle cx="1069" cy="792" r="1.3" fill="#ffffff" opacity="0.67"/><circle cx="595" cy="453" r="1.2" fill="#ffffff" opacity="0.71"/><circle cx="1012" cy="484" r="0.7" fill="#ffffff" opacity="0.94"/><circle cx="463" cy="517" r="4.1" fill="#ffffff" opacity="0.09"/><circle cx="463" cy="517" r="1.9" fill="#ffffff" opacity="0.61"/><circle cx="2850" cy="466" r="1.2" fill="#ffffff" opacity="0.73"/><circle cx="1859" cy="705" r="0.9" fill="#ffffff" opacity="0.31"/><circle cx="3023" cy="884" r="0.5" fill="#ffffff" opacity="0.40"/><circle cx="373" cy="676" r="1.2" fill="#ffffff" opacity="0.52"/><circle cx="1866" cy="769" r="0.9" fill="#ffffff" opacity="0.91"/><circle cx="2482" cy="516" r="0.6" fill="#ffffff" opacity="0.77"/><circle cx="796" cy="340" r="1.2" fill="#ffffff" opacity="0.33"/><circle cx="933" cy="504" r="1.4" fill="#ffffff" opacity="0.72"/><circle cx="2031" cy="647" r="1.3" fill="#ffffff" opacity="0.37"/><circle cx="3814" cy="751" r="1.2" fill="#ffffff" opacity="0.70"/><circle cx="3272" cy="337" r="0.6" fill="#ffffff" opacity="0.46"/><circle cx="255" cy="500" r="1.4" fill="#ffffff" opacity="0.31"/><circle cx="2486" cy="89" r="3.9" fill="#ffffff" opacity="0.11"/><circle cx="2486" cy="89" r="1.8" fill="#ffffff" opacity="0.75"/><circle cx="1345" cy="68" r="1.2" fill="#ffffff" opacity="0.69"/><circle cx="643" cy="637" r="1.2" fill="#ffffff" opacity="0.74"/><circle cx="3394" cy="189" r="0.7" fill="#ffffff" opacity="0.39"/><circle cx="2674" cy="94" r="0.7" fill="#ffffff" opacity="0.63"/><circle cx="2718" cy="628" r="0.8" fill="#ffffff" opacity="0.72"/><circle cx="1918" cy="132" r="1.3" fill="#ffffff" opacity="0.56"/><circle cx="1998" cy="710" r="1.3" fill="#ffffff" opacity="0.77"/><circle cx="3597" cy="791" r="1.3" fill="#ffffff" opacity="0.41"/><circle cx="2297" cy="147" r="1.1" fill="#ffffff" opacity="0.48"/><circle cx="1934" cy="466" r="1.0" fill="#ffffff" opacity="0.28"/><circle cx="1920" cy="568" r="0.9" fill="#ffffff" opacity="0.64"/><circle cx="980" cy="356" r="1.1" fill="#ffffff" opacity="0.63"/><circle cx="521" cy="317" r="1.3" fill="#ffffff" opacity="0.72"/><circle cx="3220" cy="532" r="0.9" fill="#ffffff" opacity="0.92"/><circle cx="2051" cy="556" r="0.8" fill="#ffffff" opacity="0.69"/><circle cx="3444" cy="584" r="0.7" fill="#ffffff" opacity="0.87"/><circle cx="290" cy="805" r="0.7" fill="#ffffff" opacity="0.69"/><circle cx="1260" cy="698" r="1.1" fill="#ffffff" opacity="0.93"/><circle cx="3456" cy="876" r="1.2" fill="#ffffff" opacity="0.44"/><circle cx="1477" cy="398" r="1.2" fill="#ffffff" opacity="0.29"/><circle cx="3537" cy="249" r="1.1" fill="#ffffff" opacity="0.25"/><circle cx="590" cy="706" r="0.8" fill="#ffffff" opacity="0.47"/><circle cx="2234" cy="851" r="3.6" fill="#ffffff" opacity="0.10"/><circle cx="2234" cy="851" r="1.6" fill="#ffffff" opacity="0.67"/><circle cx="3239" cy="719" r="1.0" fill="#ffffff" opacity="0.51"/><circle cx="3016" cy="709" r="0.7" fill="#ffffff" opacity="0.83"/><circle cx="3711" cy="320" r="0.6" fill="#ffffff" opacity="0.32"/><circle cx="242" cy="240" r="0.8" fill="#ffffff" opacity="0.48"/><circle cx="2960" cy="373" r="0.7" fill="#ffffff" opacity="0.75"/><circle cx="2498" cy="490" r="1.0" fill="#ffffff" opacity="0.31"/><circle cx="1439" cy="522" r="0.6" fill="#ffffff" opacity="0.38"/><circle cx="1780" cy="396" r="1.1" fill="#ffffff" opacity="0.34"/><circle cx="3592" cy="326" r="1.1" fill="#ffffff" opacity="0.66"/><circle cx="2538" cy="172" r="1.3" fill="#ffffff" opacity="0.90"/><circle cx="3519" cy="265" r="1.0" fill="#ffffff" opacity="0.34"/><circle cx="1425" cy="12" r="1.3" fill="#ffffff" opacity="0.73"/><circle cx="1245" cy="111" r="4.9" fill="#ffffff" opacity="0.04"/><circle cx="1245" cy="111" r="2.2" fill="#ffffff" opacity="0.26"/><circle cx="1610" cy="175" r="1.1" fill="#ffffff" opacity="0.38"/><circle cx="451" cy="872" r="1.3" fill="#ffffff" opacity="0.88"/><circle cx="692" cy="829" r="1.1" fill="#ffffff" opacity="0.78"/><circle cx="133" cy="731" r="1.0" fill="#ffffff" opacity="0.47"/><circle cx="855" cy="902" r="0.7" fill="#ffffff" opacity="0.85"/><circle cx="2155" cy="187" r="0.8" fill="#ffffff" opacity="0.39"/><circle cx="2634" cy="910" r="1.0" fill="#ffffff" opacity="0.55"/><circle cx="1941" cy="184" r="1.4" fill="#ffffff" opacity="0.83"/><circle cx="1779" cy="188" r="1.3" fill="#ffffff" opacity="0.33"/><circle cx="1165" cy="229" r="1.1" fill="#ffffff" opacity="0.72"/><circle cx="893" cy="342" r="1.3" fill="#ffffff" opacity="0.41"/><circle cx="1476" cy="333" r="1.4" fill="#ffffff" opacity="0.36"/><circle cx="3616" cy="541" r="1.2" fill="#ffffff" opacity="0.61"/><circle cx="3109" cy="506" r="0.8" fill="#ffffff" opacity="0.46"/><circle cx="1802" cy="409" r="4.5" fill="#ffffff" opacity="0.10"/><circle cx="1802" cy="409" r="2.1" fill="#ffffff" opacity="0.68"/><circle cx="1934" cy="59" r="1.3" fill="#ffffff" opacity="0.78"/><circle cx="1299" cy="587" r="1.2" fill="#ffffff" opacity="0.57"/><circle cx="1964" cy="608" r="1.0" fill="#ffffff" opacity="0.67"/><circle cx="970" cy="285" r="1.1" fill="#ffffff" opacity="0.52"/><circle cx="1998" cy="897" r="1.3" fill="#ffffff" opacity="0.55"/><circle cx="765" cy="398" r="3.8" fill="#ffffff" opacity="0.14"/><circle cx="765" cy="398" r="1.7" fill="#ffffff" opacity="0.94"/><circle cx="3621" cy="520" r="0.9" fill="#ffffff" opacity="0.57"/><circle cx="3322" cy="814" r="1.0" fill="#ffffff" opacity="0.72"/><circle cx="311" cy="918" r="1.1" fill="#ffffff" opacity="0.46"/><circle cx="2840" cy="759" r="0.5" fill="#ffffff" opacity="0.39"/><circle cx="3590" cy="432" r="1.3" fill="#ffffff" opacity="0.36"/><circle cx="910" cy="707" r="0.9" fill="#ffffff" opacity="0.60"/><circle cx="1880" cy="432" r="1.0" fill="#ffffff" opacity="0.39"/><circle cx="3700" cy="438" r="1.2" fill="#ffffff" opacity="0.50"/><circle cx="2770" cy="476" r="0.6" fill="#ffffff" opacity="0.67"/><circle cx="3271" cy="308" r="0.8" fill="#ffffff" opacity="0.59"/><circle cx="2391" cy="768" r="1.3" fill="#ffffff" opacity="0.76"/><circle cx="1375" cy="326" r="0.9" fill="#ffffff" opacity="0.66"/><circle cx="2068" cy="533" r="1.0" fill="#ffffff" opacity="0.56"/><circle cx="690" cy="85" r="0.7" fill="#ffffff" opacity="0.77"/><circle cx="2691" cy="652" r="1.1" fill="#ffffff" opacity="0.65"/><circle cx="3503" cy="298" r="1.1" fill="#ffffff" opacity="0.53"/><circle cx="1885" cy="571" r="0.7" fill="#ffffff" opacity="0.70"/><circle cx="2612" cy="174" r="1.2" fill="#ffffff" opacity="0.76"/><circle cx="2986" cy="302" r="1.3" fill="#ffffff" opacity="0.34"/><circle cx="3623" cy="794" r="1.4" fill="#ffffff" opacity="0.28"/><circle cx="3379" cy="73" r="1.3" fill="#ffffff" opacity="0.70"/><circle cx="114" cy="263" r="1.2" fill="#ffffff" opacity="0.45"/><circle cx="350" cy="155" r="1.3" fill="#ffffff" opacity="0.85"/><circle cx="2717" cy="462" r="0.9" fill="#ffffff" opacity="0.49"/><circle cx="3067" cy="771" r="5.4" fill="#ffffff" opacity="0.11"/><circle cx="3067" cy="771" r="2.4" fill="#ffffff" opacity="0.73"/><circle cx="2975" cy="428" r="0.8" fill="#ffffff" opacity="0.74"/><circle cx="1172" cy="918" r="0.9" fill="#ffffff" opacity="0.44"/><circle cx="649" cy="817" r="0.8" fill="#ffffff" opacity="0.44"/><circle cx="302" cy="238" r="0.6" fill="#ffffff" opacity="0.95"/><circle cx="1190" cy="368" r="0.9" fill="#ffffff" opacity="0.40"/><circle cx="2747" cy="447" r="1.2" fill="#ffffff" opacity="0.27"/><circle cx="1429" cy="441" r="0.8" fill="#ffffff" opacity="0.80"/><circle cx="3685" cy="446" r="1.1" fill="#ffffff" opacity="0.83"/><circle cx="2215" cy="638" r="0.8" fill="#ffffff" opacity="0.91"/><circle cx="3387" cy="54" r="1.3" fill="#ffffff" opacity="0.84"/><circle cx="356" cy="875" r="1.0" fill="#ffffff" opacity="0.90"/><circle cx="3477" cy="516" r="0.7" fill="#ffffff" opacity="0.67"/><circle cx="454" cy="591" r="0.7" fill="#ffffff" opacity="0.39"/><circle cx="1123" cy="274" r="1.2" fill="#ffffff" opacity="0.91"/><circle cx="3505" cy="634" r="1.2" fill="#ffffff" opacity="0.88"/><circle cx="166" cy="167" r="1.0" fill="#ffffff" opacity="0.59"/><circle cx="3368" cy="543" r="1.2" fill="#ffffff" opacity="0.62"/><circle cx="2356" cy="554" r="0.9" fill="#ffffff" opacity="0.65"/><circle cx="3464" cy="361" r="0.6" fill="#ffffff" opacity="0.70"/><circle cx="1255" cy="290" r="0.6" fill="#ffffff" opacity="0.54"/><circle cx="1745" cy="339" r="0.7" fill="#ffffff" opacity="0.92"/><circle cx="489" cy="507" r="1.0" fill="#ffffff" opacity="0.78"/><circle cx="3675" cy="291" r="1.4" fill="#ffffff" opacity="0.69"/><circle cx="3534" cy="108" r="0.7" fill="#ffffff" opacity="0.72"/><circle cx="2026" cy="563" r="1.2" fill="#ffffff" opacity="0.31"/><circle cx="3246" cy="782" r="1.3" fill="#ffffff" opacity="0.58"/><circle cx="3368" cy="5" r="0.6" fill="#ffffff" opacity="0.35"/><circle cx="1353" cy="9" r="0.5" fill="#ffffff" opacity="0.36"/><circle cx="1831" cy="168" r="0.9" fill="#ffffff" opacity="0.32"/><circle cx="2118" cy="837" r="0.6" fill="#ffffff" opacity="0.66"/><circle cx="3127" cy="377" r="1.1" fill="#ffffff" opacity="0.80"/><circle cx="541" cy="908" r="0.8" fill="#ffffff" opacity="0.82"/><circle cx="2818" cy="742" r="1.3" fill="#ffffff" opacity="0.76"/><circle cx="3694" cy="468" r="1.1" fill="#ffffff" opacity="0.40"/><circle cx="1130" cy="511" r="3.6" fill="#ffffff" opacity="0.07"/><circle cx="1130" cy="511" r="1.6" fill="#ffffff" opacity="0.50"/><circle cx="1518" cy="627" r="1.1" fill="#ffffff" opacity="0.26"/><circle cx="3804" cy="873" r="1.3" fill="#ffffff" opacity="0.81"/><circle cx="842" cy="308" r="1.3" fill="#ffffff" opacity="0.53"/><circle cx="1528" cy="735" r="1.2" fill="#ffffff" opacity="0.64"/><circle cx="3421" cy="553" r="4.9" fill="#ffffff" opacity="0.09"/><circle cx="3421" cy="553" r="2.2" fill="#ffffff" opacity="0.58"/><circle cx="2404" cy="23" r="0.7" fill="#ffffff" opacity="0.77"/><circle cx="2708" cy="162" r="0.8" fill="#ffffff" opacity="0.33"/><circle cx="2610" cy="562" r="1.3" fill="#ffffff" opacity="0.51"/><circle cx="1983" cy="559" r="0.9" fill="#ffffff" opacity="0.63"/><circle cx="2826" cy="820" r="1.1" fill="#ffffff" opacity="0.29"/><circle cx="3320" cy="13" r="1.3" fill="#ffffff" opacity="0.48"/><circle cx="3784" cy="105" r="1.3" fill="#ffffff" opacity="0.85"/><circle cx="3465" cy="64" r="1.3" fill="#ffffff" opacity="0.86"/><circle cx="3207" cy="413" r="1.2" fill="#ffffff" opacity="0.36"/><circle cx="2156" cy="821" r="0.9" fill="#ffffff" opacity="0.32"/><circle cx="1662" cy="22" r="1.4" fill="#ffffff" opacity="0.26"/><circle cx="2763" cy="437" r="0.9" fill="#ffffff" opacity="0.59"/><circle cx="1128" cy="379" r="1.1" fill="#ffffff" opacity="0.72"/><circle cx="310" cy="608" r="1.2" fill="#ffffff" opacity="0.85"/><circle cx="2957" cy="64" r="0.7" fill="#ffffff" opacity="0.33"/><circle cx="1112" cy="442" r="0.7" fill="#ffffff" opacity="0.33"/><circle cx="1521" cy="308" r="0.5" fill="#ffffff" opacity="0.25"/><circle cx="728" cy="508" r="0.7" fill="#ffffff" opacity="0.37"/><circle cx="333" cy="122" r="0.9" fill="#ffffff" opacity="0.46"/><circle cx="1114" cy="330" r="0.6" fill="#ffffff" opacity="0.66"/><circle cx="2873" cy="884" r="5.1" fill="#ffffff" opacity="0.09"/><circle cx="2873" cy="884" r="2.3" fill="#ffffff" opacity="0.60"/><circle cx="3210" cy="376" r="0.5" fill="#ffffff" opacity="0.74"/><circle cx="2084" cy="276" r="0.7" fill="#ffffff" opacity="0.74"/><circle cx="3370" cy="463" r="1.3" fill="#ffffff" opacity="0.54"/><circle cx="3004" cy="642" r="0.9" fill="#ffffff" opacity="0.32"/><circle cx="33" cy="369" r="0.7" fill="#ffffff" opacity="0.69"/><circle cx="1212" cy="177" r="0.5" fill="#ffffff" opacity="0.40"/><circle cx="819" cy="781" r="1.3" fill="#ffffff" opacity="0.75"/><circle cx="2760" cy="251" r="0.7" fill="#ffffff" opacity="0.34"/><circle cx="1854" cy="651" r="1.3" fill="#ffffff" opacity="0.87"/><circle cx="2929" cy="149" r="1.1" fill="#ffffff" opacity="0.88"/><circle cx="490" cy="630" r="1.0" fill="#ffffff" opacity="0.75"/><circle cx="1778" cy="762" r="0.8" fill="#ffffff" opacity="0.34"/><circle cx="623" cy="126" r="0.9" fill="#ffffff" opacity="0.59"/><circle cx="578" cy="671" r="1.4" fill="#ffffff" opacity="0.49"/><circle cx="267" cy="344" r="0.5" fill="#ffffff" opacity="0.79"/><circle cx="2912" cy="557" r="1.3" fill="#ffffff" opacity="0.79"/><circle cx="1505" cy="20" r="1.0" fill="#ffffff" opacity="0.43"/><circle cx="3386" cy="789" r="1.4" fill="#ffffff" opacity="0.61"/><circle cx="323" cy="144" r="0.6" fill="#ffffff" opacity="0.34"/><circle cx="1522" cy="14" r="0.6" fill="#ffffff" opacity="0.75"/><circle cx="2025" cy="744" r="1.3" fill="#ffffff" opacity="0.44"/><circle cx="1811" cy="755" r="1.0" fill="#ffffff" opacity="0.47"/><circle cx="3509" cy="417" r="1.3" fill="#ffffff" opacity="0.31"/><circle cx="2057" cy="851" r="0.6" fill="#ffffff" opacity="0.95"/><circle cx="112" cy="76" r="1.2" fill="#ffffff" opacity="0.37"/><circle cx="3725" cy="788" r="0.7" fill="#ffffff" opacity="0.75"/><circle cx="2920" cy="723" r="1.1" fill="#ffffff" opacity="0.27"/><circle cx="3740" cy="645" r="1.0" fill="#ffffff" opacity="0.90"/><circle cx="1979" cy="561" r="0.9" fill="#ffffff" opacity="0.33"/><circle cx="1758" cy="127" r="0.6" fill="#ffffff" opacity="0.47"/><circle cx="3740" cy="829" r="0.6" fill="#ffffff" opacity="0.58"/><circle cx="3318" cy="617" r="0.8" fill="#ffffff" opacity="0.66"/><circle cx="855" cy="121" r="0.9" fill="#ffffff" opacity="0.52"/><circle cx="997" cy="65" r="1.2" fill="#ffffff" opacity="0.91"/><circle cx="2481" cy="127" r="0.8" fill="#ffffff" opacity="0.42"/><circle cx="2561" cy="132" r="0.7" fill="#ffffff" opacity="0.32"/><circle cx="222" cy="633" r="1.3" fill="#ffffff" opacity="0.58"/><circle cx="1722" cy="480" r="1.0" fill="#ffffff" opacity="0.57"/><circle cx="168" cy="106" r="1.2" fill="#ffffff" opacity="0.89"/><circle cx="669" cy="78" r="1.1" fill="#ffffff" opacity="0.44"/><circle cx="2909" cy="34" r="4.4" fill="#ffffff" opacity="0.14"/><circle cx="2909" cy="34" r="2.0" fill="#ffffff" opacity="0.93"/><circle cx="2890" cy="260" r="5.7" fill="#ffffff" opacity="0.05"/><circle cx="2890" cy="260" r="2.6" fill="#ffffff" opacity="0.34"/><circle cx="932" cy="319" r="0.6" fill="#ffffff" opacity="0.79"/><circle cx="3040" cy="162" r="1.0" fill="#ffffff" opacity="0.38"/><circle cx="781" cy="65" r="1.1" fill="#ffffff" opacity="0.70"/><circle cx="3552" cy="19" r="1.2" fill="#ffffff" opacity="0.28"/><circle cx="1862" cy="215" r="1.3" fill="#ffffff" opacity="0.28"/><circle cx="2026" cy="772" r="1.4" fill="#ffffff" opacity="0.76"/><circle cx="3120" cy="39" r="0.6" fill="#ffffff" opacity="0.32"/><circle cx="3118" cy="188" r="0.8" fill="#ffffff" opacity="0.55"/><circle cx="1797" cy="640" r="0.5" fill="#ffffff" opacity="0.30"/><circle cx="1391" cy="414" r="1.2" fill="#ffffff" opacity="0.95"/><circle cx="1146" cy="157" r="3.8" fill="#ffffff" opacity="0.09"/><circle cx="1146" cy="157" r="1.7" fill="#ffffff" opacity="0.60"/><circle cx="1377" cy="279" r="0.8" fill="#ffffff" opacity="0.39"/><circle cx="3116" cy="264" r="1.4" fill="#ffffff" opacity="0.85"/><circle cx="3397" cy="133" r="1.2" fill="#ffffff" opacity="0.89"/><circle cx="1951" cy="247" r="1.0" fill="#ffffff" opacity="0.26"/><circle cx="3718" cy="912" r="1.1" fill="#ffffff" opacity="0.34"/><circle cx="2810" cy="95" r="0.7" fill="#ffffff" opacity="0.51"/><circle cx="376" cy="4" r="0.8" fill="#ffffff" opacity="0.35"/><circle cx="498" cy="590" r="4.8" fill="#ffffff" opacity="0.11"/><circle cx="498" cy="590" r="2.2" fill="#ffffff" opacity="0.75"/><circle cx="2174" cy="880" r="0.7" fill="#ffffff" opacity="0.41"/><circle cx="105" cy="363" r="1.1" fill="#ffffff" opacity="0.59"/><circle cx="624" cy="159" r="1.4" fill="#ffffff" opacity="0.30"/><circle cx="206" cy="580" r="1.2" fill="#ffffff" opacity="0.81"/><circle cx="541" cy="407" r="1.3" fill="#ffffff" opacity="0.59"/><circle cx="29" cy="394" r="0.8" fill="#ffffff" opacity="0.65"/><circle cx="3715" cy="423" r="0.5" fill="#ffffff" opacity="0.27"/><circle cx="2587" cy="373" r="0.5" fill="#ffffff" opacity="0.31"/><circle cx="1827" cy="803" r="1.2" fill="#ffffff" opacity="0.79"/><circle cx="3236" cy="543" r="0.6" fill="#ffffff" opacity="0.33"/><circle cx="3299" cy="888" r="0.8" fill="#ffffff" opacity="0.49"/><circle cx="1573" cy="61" r="1.0" fill="#ffffff" opacity="0.66"/><circle cx="3371" cy="316" r="1.2" fill="#ffffff" opacity="0.50"/><circle cx="1031" cy="603" r="1.3" fill="#ffffff" opacity="0.39"/><circle cx="3316" cy="737" r="1.4" fill="#ffffff" opacity="0.75"/><circle cx="1783" cy="851" r="1.0" fill="#ffffff" opacity="0.90"/><circle cx="463" cy="372" r="4.6" fill="#ffffff" opacity="0.06"/><circle cx="463" cy="372" r="2.1" fill="#ffffff" opacity="0.43"/><circle cx="1226" cy="517" r="1.4" fill="#ffffff" opacity="0.50"/><circle cx="3505" cy="746" r="1.1" fill="#ffffff" opacity="0.66"/><circle cx="2041" cy="704" r="1.4" fill="#ffffff" opacity="0.60"/><circle cx="3166" cy="190" r="0.6" fill="#ffffff" opacity="0.59"/><circle cx="3153" cy="606" r="1.4" fill="#ffffff" opacity="0.36"/><circle cx="2678" cy="310" r="1.0" fill="#ffffff" opacity="0.67"/><circle cx="824" cy="274" r="0.7" fill="#ffffff" opacity="0.29"/><circle cx="563" cy="635" r="0.5" fill="#ffffff" opacity="0.49"/><circle cx="3038" cy="212" r="1.1" fill="#ffffff" opacity="0.75"/><circle cx="2146" cy="695" r="0.6" fill="#ffffff" opacity="0.50"/><circle cx="1220" cy="173" r="0.8" fill="#ffffff" opacity="0.39"/><circle cx="3292" cy="510" r="1.0" fill="#ffffff" opacity="0.71"/><circle cx="3652" cy="355" r="0.6" fill="#ffffff" opacity="0.66"/><circle cx="427" cy="11" r="0.9" fill="#ffffff" opacity="0.92"/><circle cx="2609" cy="141" r="1.3" fill="#ffffff" opacity="0.28"/><circle cx="3347" cy="71" r="1.1" fill="#ffffff" opacity="0.66"/><circle cx="1065" cy="458" r="1.0" fill="#ffffff" opacity="0.40"/><circle cx="455" cy="599" r="0.9" fill="#ffffff" opacity="0.46"/><circle cx="1927" cy="524" r="1.1" fill="#ffffff" opacity="0.45"/><circle cx="937" cy="18" r="0.5" fill="#ffffff" opacity="0.38"/><circle cx="1771" cy="16" r="0.7" fill="#ffffff" opacity="0.62"/><circle cx="3311" cy="787" r="0.5" fill="#ffffff" opacity="0.88"/><circle cx="2710" cy="679" r="1.1" fill="#ffffff" opacity="0.52"/><circle cx="3198" cy="917" r="1.0" fill="#ffffff" opacity="0.72"/><circle cx="3367" cy="629" r="1.0" fill="#ffffff" opacity="0.61"/><circle cx="481" cy="267" r="1.3" fill="#ffffff" opacity="0.42"/><circle cx="1728" cy="80" r="0.8" fill="#ffffff" opacity="0.55"/><circle cx="2740" cy="462" r="1.0" fill="#ffffff" opacity="0.33"/><circle cx="3827" cy="473" r="0.7" fill="#ffffff" opacity="0.32"/><circle cx="1082" cy="87" r="1.3" fill="#ffffff" opacity="0.43"/><circle cx="3050" cy="749" r="0.6" fill="#ffffff" opacity="0.81"/><circle cx="1649" cy="142" r="1.4" fill="#ffffff" opacity="0.29"/><circle cx="1996" cy="659" r="0.7" fill="#ffffff" opacity="0.62"/><circle cx="2667" cy="431" r="1.1" fill="#ffffff" opacity="0.61"/><circle cx="394" cy="703" r="0.9" fill="#ffffff" opacity="0.51"/><circle cx="1278" cy="588" r="1.2" fill="#ffffff" opacity="0.85"/><circle cx="2029" cy="703" r="1.3" fill="#ffffff" opacity="0.89"/><circle cx="14" cy="540" r="0.6" fill="#ffffff" opacity="0.71"/><circle cx="415" cy="139" r="1.2" fill="#ffffff" opacity="0.36"/><circle cx="2520" cy="622" r="1.0" fill="#ffffff" opacity="0.26"/><circle cx="1732" cy="849" r="1.3" fill="#ffffff" opacity="0.55"/><circle cx="1102" cy="200" r="1.4" fill="#ffffff" opacity="0.65"/><circle cx="3181" cy="900" r="1.3" fill="#ffffff" opacity="0.38"/><circle cx="1783" cy="239" r="1.0" fill="#ffffff" opacity="0.28"/><circle cx="2258" cy="809" r="1.2" fill="#ffffff" opacity="0.79"/><circle cx="1299" cy="739" r="0.7" fill="#ffffff" opacity="0.26"/><circle cx="3045" cy="459" r="0.8" fill="#ffffff" opacity="0.59"/><circle cx="3162" cy="582" r="1.2" fill="#ffffff" opacity="0.54"/><circle cx="1442" cy="581" r="1.3" fill="#ffffff" opacity="0.94"/><circle cx="3069" cy="660" r="0.9" fill="#ffffff" opacity="0.47"/><circle cx="3455" cy="280" r="1.0" fill="#ffffff" opacity="0.58"/><circle cx="1266" cy="582" r="1.3" fill="#ffffff" opacity="0.83"/><circle cx="2492" cy="385" r="5.4" fill="#ffffff" opacity="0.11"/><circle cx="2492" cy="385" r="2.5" fill="#ffffff" opacity="0.73"/><circle cx="2593" cy="555" r="0.8" fill="#ffffff" opacity="0.68"/><circle cx="1510" cy="402" r="1.3" fill="#ffffff" opacity="0.75"/><circle cx="3496" cy="750" r="5.6" fill="#ffffff" opacity="0.09"/><circle cx="3496" cy="750" r="2.5" fill="#ffffff" opacity="0.58"/><circle cx="2803" cy="377" r="0.7" fill="#ffffff" opacity="0.61"/><circle cx="2207" cy="378" r="1.0" fill="#ffffff" opacity="0.67"/><circle cx="199" cy="688" r="0.8" fill="#ffffff" opacity="0.79"/><circle cx="2568" cy="185" r="1.2" fill="#ffffff" opacity="0.55"/><circle cx="3452" cy="372" r="0.6" fill="#ffffff" opacity="0.59"/><circle cx="3264" cy="674" r="1.4" fill="#ffffff" opacity="0.54"/><circle cx="1135" cy="694" r="4.8" fill="#ffffff" opacity="0.10"/><circle cx="1135" cy="694" r="2.2" fill="#ffffff" opacity="0.68"/><circle cx="3351" cy="691" r="0.8" fill="#ffffff" opacity="0.59"/><circle cx="3294" cy="851" r="1.2" fill="#ffffff" opacity="0.77"/><circle cx="3365" cy="520" r="1.4" fill="#ffffff" opacity="0.62"/><circle cx="192" cy="445" r="0.8" fill="#ffffff" opacity="0.63"/><circle cx="3036" cy="608" r="1.2" fill="#ffffff" opacity="0.42"/><circle cx="3163" cy="276" r="0.5" fill="#ffffff" opacity="0.37"/><circle cx="820" cy="361" r="1.1" fill="#ffffff" opacity="0.35"/><circle cx="1451" cy="457" r="1.2" fill="#ffffff" opacity="0.28"/><circle cx="2483" cy="142" r="0.7" fill="#ffffff" opacity="0.39"/><circle cx="3684" cy="735" r="1.3" fill="#ffffff" opacity="0.49"/><circle cx="1800" cy="481" r="1.4" fill="#ffffff" opacity="0.50"/><circle cx="709" cy="418" r="0.9" fill="#ffffff" opacity="0.37"/><circle cx="2178" cy="417" r="1.3" fill="#ffffff" opacity="0.49"/><circle cx="2227" cy="483" r="1.2" fill="#ffffff" opacity="0.70"/><circle cx="1125" cy="545" r="0.6" fill="#ffffff" opacity="0.65"/><circle cx="712" cy="717" r="0.6" fill="#ffffff" opacity="0.27"/><circle cx="2185" cy="603" r="1.0" fill="#ffffff" opacity="0.56"/><circle cx="439" cy="131" r="1.3" fill="#ffffff" opacity="0.47"/><circle cx="2886" cy="686" r="1.3" fill="#ffffff" opacity="0.74"/><circle cx="456" cy="770" r="1.1" fill="#ffffff" opacity="0.41"/><circle cx="344" cy="53" r="4.9" fill="#ffffff" opacity="0.10"/><circle cx="344" cy="53" r="2.2" fill="#ffffff" opacity="0.69"/><circle cx="2163" cy="230" r="0.5" fill="#ffffff" opacity="0.32"/><circle cx="2330" cy="629" r="0.7" fill="#ffffff" opacity="0.54"/><circle cx="2036" cy="220" r="5.3" fill="#ffffff" opacity="0.10"/><circle cx="2036" cy="220" r="2.4" fill="#ffffff" opacity="0.70"/><circle cx="160" cy="778" r="0.8" fill="#ffffff" opacity="0.39"/><circle cx="3287" cy="79" r="4.0" fill="#ffffff" opacity="0.13"/><circle cx="3287" cy="79" r="1.8" fill="#ffffff" opacity="0.89"/><circle cx="3464" cy="478" r="0.6" fill="#ffffff" opacity="0.68"/><circle cx="2796" cy="674" r="1.2" fill="#ffffff" opacity="0.51"/><circle cx="936" cy="508" r="1.3" fill="#ffffff" opacity="0.39"/><circle cx="893" cy="718" r="1.3" fill="#ffffff" opacity="0.66"/><circle cx="3839" cy="633" r="1.1" fill="#ffffff" opacity="0.33"/><circle cx="2958" cy="224" r="0.9" fill="#ffffff" opacity="0.26"/><circle cx="351" cy="851" r="1.3" fill="#ffffff" opacity="0.26"/><circle cx="63" cy="241" r="1.1" fill="#ffffff" opacity="0.67"/><circle cx="3190" cy="880" r="1.0" fill="#ffffff" opacity="0.68"/><circle cx="3201" cy="544" r="1.4" fill="#ffffff" opacity="0.92"/><circle cx="3489" cy="227" r="0.7" fill="#ffffff" opacity="0.42"/><circle cx="2157" cy="547" r="3.5" fill="#ffffff" opacity="0.06"/><circle cx="2157" cy="547" r="1.6" fill="#ffffff" opacity="0.40"/><circle cx="255" cy="182" r="1.3" fill="#ffffff" opacity="0.37"/><circle cx="1976" cy="13" r="1.3" fill="#ffffff" opacity="0.40"/><circle cx="1642" cy="778" r="0.7" fill="#ffffff" opacity="0.88"/><circle cx="2834" cy="766" r="0.6" fill="#ffffff" opacity="0.60"/><circle cx="298" cy="593" r="0.9" fill="#ffffff" opacity="0.68"/><circle cx="872" cy="667" r="1.4" fill="#ffffff" opacity="0.70"/><circle cx="899" cy="862" r="0.5" fill="#ffffff" opacity="0.61"/><circle cx="3533" cy="709" r="1.0" fill="#ffffff" opacity="0.44"/><circle cx="2216" cy="355" r="1.4" fill="#ffffff" opacity="0.63"/><circle cx="696" cy="300" r="1.4" fill="#ffffff" opacity="0.52"/><circle cx="2244" cy="563" r="0.9" fill="#ffffff" opacity="0.45"/><circle cx="3719" cy="345" r="1.1" fill="#ffffff" opacity="0.88"/><circle cx="1581" cy="446" r="1.0" fill="#ffffff" opacity="0.63"/><circle cx="800" cy="418" r="0.6" fill="#ffffff" opacity="0.70"/><circle cx="3328" cy="180" r="0.9" fill="#ffffff" opacity="0.26"/><circle cx="1347" cy="96" r="1.0" fill="#ffffff" opacity="0.29"/><circle cx="2725" cy="61" r="0.8" fill="#ffffff" opacity="0.34"/><circle cx="1919" cy="256" r="1.0" fill="#ffffff" opacity="0.79"/><circle cx="3178" cy="222" r="0.9" fill="#ffffff" opacity="0.45"/><circle cx="1139" cy="156" r="1.3" fill="#ffffff" opacity="0.42"/><circle cx="361" cy="628" r="0.8" fill="#ffffff" opacity="0.77"/><circle cx="630" cy="852" r="0.8" fill="#ffffff" opacity="0.64"/><circle cx="2231" cy="73" r="0.5" fill="#ffffff" opacity="0.57"/><circle cx="2739" cy="898" r="0.6" fill="#ffffff" opacity="0.46"/><circle cx="3432" cy="622" r="0.9" fill="#ffffff" opacity="0.78"/><circle cx="1747" cy="112" r="1.1" fill="#ffffff" opacity="0.72"/><circle cx="52" cy="230" r="1.4" fill="#ffffff" opacity="0.51"/><circle cx="1207" cy="503" r="0.9" fill="#ffffff" opacity="0.55"/><circle cx="1981" cy="98" r="1.4" fill="#ffffff" opacity="0.66"/><circle cx="2645" cy="3" r="0.9" fill="#ffffff" opacity="0.51"/><circle cx="143" cy="822" r="0.8" fill="#ffffff" opacity="0.88"/><circle cx="3479" cy="449" r="0.7" fill="#ffffff" opacity="0.84"/><circle cx="3434" cy="330" r="3.7" fill="#ffffff" opacity="0.09"/><circle cx="3434" cy="330" r="1.7" fill="#ffffff" opacity="0.60"/><circle cx="1580" cy="240" r="0.7" fill="#ffffff" opacity="0.33"/><circle cx="871" cy="465" r="0.7" fill="#ffffff" opacity="0.68"/><circle cx="3836" cy="378" r="1.2" fill="#ffffff" opacity="0.62"/><circle cx="3106" cy="528" r="0.5" fill="#ffffff" opacity="0.73"/><circle cx="116" cy="628" r="1.4" fill="#ffffff" opacity="0.32"/><circle cx="1779" cy="611" r="1.1" fill="#ffffff" opacity="0.72"/><circle cx="435" cy="716" r="0.8" fill="#ffffff" opacity="0.46"/><circle cx="2901" cy="593" r="0.8" fill="#ffffff" opacity="0.30"/><circle cx="3680" cy="274" r="0.6" fill="#ffffff" opacity="0.87"/><circle cx="808" cy="287" r="1.2" fill="#ffffff" opacity="0.36"/><circle cx="2912" cy="233" r="1.0" fill="#ffffff" opacity="0.55"/><circle cx="490" cy="248" r="1.2" fill="#ffffff" opacity="0.54"/><circle cx="67" cy="806" r="1.1" fill="#ffffff" opacity="0.90"/><circle cx="2631" cy="736" r="1.1" fill="#ffffff" opacity="0.45"/><circle cx="2354" cy="229" r="0.6" fill="#ffffff" opacity="0.29"/><circle cx="1962" cy="560" r="0.6" fill="#ffffff" opacity="0.63"/><circle cx="3785" cy="78" r="1.0" fill="#ffffff" opacity="0.61"/><circle cx="2791" cy="845" r="1.1" fill="#ffffff" opacity="0.73"/><circle cx="3778" cy="802" r="0.6" fill="#ffffff" opacity="0.50"/><circle cx="2852" cy="675" r="1.4" fill="#ffffff" opacity="0.65"/><circle cx="340" cy="36" r="0.9" fill="#ffffff" opacity="0.44"/><circle cx="2514" cy="179" r="1.3" fill="#ffffff" opacity="0.46"/><circle cx="2839" cy="427" r="1.4" fill="#ffffff" opacity="0.71"/><circle cx="248" cy="210" r="0.8" fill="#ffffff" opacity="0.38"/><circle cx="2149" cy="578" r="0.6" fill="#ffffff" opacity="0.82"/><circle cx="897" cy="502" r="4.8" fill="#ffffff" opacity="0.12"/><circle cx="897" cy="502" r="2.2" fill="#ffffff" opacity="0.80"/><circle cx="926" cy="441" r="0.7" fill="#ffffff" opacity="0.25"/><circle cx="755" cy="323" r="0.7" fill="#ffffff" opacity="0.41"/><circle cx="3765" cy="175" r="1.1" fill="#ffffff" opacity="0.84"/><circle cx="734" cy="130" r="1.2" fill="#ffffff" opacity="0.47"/><circle cx="2779" cy="841" r="0.7" fill="#ffffff" opacity="0.47"/><circle cx="3816" cy="585" r="0.9" fill="#ffffff" opacity="0.53"/><circle cx="2942" cy="858" r="0.7" fill="#ffffff" opacity="0.40"/><circle cx="1288" cy="439" r="1.1" fill="#ffffff" opacity="0.38"/><circle cx="1311" cy="553" r="0.6" fill="#ffffff" opacity="0.54"/><circle cx="1908" cy="829" r="1.3" fill="#ffffff" opacity="0.94"/><circle cx="1546" cy="297" r="1.0" fill="#ffffff" opacity="0.56"/><circle cx="3388" cy="128" r="1.4" fill="#ffffff" opacity="0.54"/><circle cx="877" cy="712" r="1.1" fill="#ffffff" opacity="0.55"/><circle cx="3311" cy="903" r="1.0" fill="#ffffff" opacity="0.37"/><circle cx="3216" cy="304" r="0.7" fill="#ffffff" opacity="0.42"/><circle cx="3197" cy="104" r="0.6" fill="#ffffff" opacity="0.66"/><circle cx="1212" cy="418" r="0.8" fill="#ffffff" opacity="0.83"/><circle cx="715" cy="441" r="1.3" fill="#ffffff" opacity="0.29"/><circle cx="298" cy="538" r="1.1" fill="#ffffff" opacity="0.81"/><circle cx="2110" cy="605" r="0.9" fill="#ffffff" opacity="0.46"/><circle cx="1947" cy="38" r="1.0" fill="#ffffff" opacity="0.36"/><circle cx="1266" cy="534" r="5.2" fill="#ffffff" opacity="0.04"/><circle cx="1266" cy="534" r="2.4" fill="#ffffff" opacity="0.27"/><circle cx="356" cy="700" r="0.8" fill="#ffffff" opacity="0.87"/><circle cx="1926" cy="572" r="0.8" fill="#ffffff" opacity="0.68"/><circle cx="1839" cy="343" r="1.2" fill="#ffffff" opacity="0.86"/><circle cx="1158" cy="4" r="0.7" fill="#ffffff" opacity="0.80"/><circle cx="3413" cy="479" r="0.6" fill="#ffffff" opacity="0.94"/><circle cx="2865" cy="550" r="1.2" fill="#ffffff" opacity="0.77"/><circle cx="3082" cy="779" r="0.7" fill="#ffffff" opacity="0.50"/><circle cx="2686" cy="736" r="1.4" fill="#ffffff" opacity="0.74"/><circle cx="1024" cy="557" r="1.1" fill="#ffffff" opacity="0.68"/><circle cx="1744" cy="645" r="0.5" fill="#ffffff" opacity="0.34"/><circle cx="3364" cy="513" r="1.3" fill="#ffffff" opacity="0.45"/><circle cx="3567" cy="890" r="1.3" fill="#ffffff" opacity="0.68"/><circle cx="3379" cy="363" r="0.7" fill="#ffffff" opacity="0.80"/><circle cx="1345" cy="844" r="0.5" fill="#ffffff" opacity="0.93"/><circle cx="2789" cy="556" r="1.1" fill="#ffffff" opacity="0.61"/><circle cx="1083" cy="205" r="0.7" fill="#ffffff" opacity="0.27"/><circle cx="1514" cy="88" r="1.2" fill="#ffffff" opacity="0.41"/><circle cx="3566" cy="303" r="1.0" fill="#ffffff" opacity="0.63"/><circle cx="2541" cy="212" r="1.1" fill="#ffffff" opacity="0.32"/><circle cx="854" cy="441" r="1.1" fill="#ffffff" opacity="0.80"/><circle cx="3695" cy="406" r="0.9" fill="#ffffff" opacity="0.53"/><circle cx="2568" cy="135" r="0.9" fill="#ffffff" opacity="0.74"/><circle cx="1255" cy="205" r="1.3" fill="#ffffff" opacity="0.76"/><circle cx="3327" cy="347" r="1.2" fill="#ffffff" opacity="0.84"/><circle cx="611" cy="914" r="1.4" fill="#ffffff" opacity="0.51"/><circle cx="146" cy="96" r="0.6" fill="#ffffff" opacity="0.65"/><circle cx="1817" cy="289" r="0.7" fill="#ffffff" opacity="0.75"/><circle cx="892" cy="879" r="1.0" fill="#ffffff" opacity="0.43"/><circle cx="357" cy="765" r="0.8" fill="#ffffff" opacity="0.55"/><circle cx="227" cy="79" r="0.5" fill="#ffffff" opacity="0.88"/><circle cx="333" cy="283" r="1.1" fill="#ffffff" opacity="0.92"/><circle cx="1390" cy="179" r="0.6" fill="#ffffff" opacity="0.53"/><circle cx="58" cy="45" r="1.0" fill="#ffffff" opacity="0.56"/><circle cx="816" cy="879" r="5.4" fill="#ffffff" opacity="0.13"/><circle cx="816" cy="879" r="2.4" fill="#ffffff" opacity="0.84"/><circle cx="949" cy="11" r="0.9" fill="#ffffff" opacity="0.66"/><circle cx="3556" cy="24" r="1.2" fill="#ffffff" opacity="0.79"/><circle cx="125" cy="11" r="0.7" fill="#ffffff" opacity="0.28"/><circle cx="963" cy="753" r="0.9" fill="#ffffff" opacity="0.61"/><circle cx="2798" cy="609" r="0.6" fill="#ffffff" opacity="0.49"/><circle cx="587" cy="618" r="1.3" fill="#ffffff" opacity="0.69"/><circle cx="639" cy="99" r="0.8" fill="#ffffff" opacity="0.45"/><circle cx="3170" cy="543" r="0.5" fill="#ffffff" opacity="0.30"/><circle cx="451" cy="98" r="1.3" fill="#ffffff" opacity="0.65"/><circle cx="1985" cy="856" r="0.6" fill="#ffffff" opacity="0.49"/><circle cx="2170" cy="871" r="0.7" fill="#ffffff" opacity="0.43"/><circle cx="3732" cy="201" r="1.0" fill="#ffffff" opacity="0.55"/><circle cx="3728" cy="645" r="0.8" fill="#ffffff" opacity="0.66"/><circle cx="2236" cy="188" r="1.1" fill="#ffffff" opacity="0.80"/><circle cx="1541" cy="224" r="0.7" fill="#ffffff" opacity="0.90"/><circle cx="1023" cy="513" r="1.1" fill="#ffffff" opacity="0.90"/><circle cx="934" cy="232" r="1.4" fill="#ffffff" opacity="0.53"/><circle cx="2777" cy="465" r="1.0" fill="#ffffff" opacity="0.94"/><circle cx="2829" cy="796" r="4.1" fill="#ffffff" opacity="0.04"/><circle cx="2829" cy="796" r="1.8" fill="#ffffff" opacity="0.28"/><circle cx="1599" cy="496" r="1.2" fill="#ffffff" opacity="0.45"/><circle cx="316" cy="708" r="1.0" fill="#ffffff" opacity="0.56"/><circle cx="2224" cy="910" r="0.7" fill="#ffffff" opacity="0.63"/><circle cx="3162" cy="698" r="0.8" fill="#ffffff" opacity="0.55"/><circle cx="3790" cy="181" r="1.3" fill="#ffffff" opacity="0.51"/><circle cx="1120" cy="294" r="1.3" fill="#ffffff" opacity="0.65"/><circle cx="1172" cy="589" r="1.2" fill="#ffffff" opacity="0.87"/><circle cx="3115" cy="457" r="0.6" fill="#ffffff" opacity="0.90"/><circle cx="4" cy="546" r="1.0" fill="#ffffff" opacity="0.79"/><circle cx="3387" cy="683" r="0.8" fill="#ffffff" opacity="0.82"/><circle cx="259" cy="687" r="0.6" fill="#ffffff" opacity="0.51"/><circle cx="667" cy="441" r="1.1" fill="#ffffff" opacity="0.48"/><circle cx="3815" cy="220" r="1.0" fill="#ffffff" opacity="0.71"/><circle cx="952" cy="583" r="0.9" fill="#ffffff" opacity="0.88"/><circle cx="3042" cy="86" r="1.3" fill="#ffffff" opacity="0.61"/><circle cx="2199" cy="566" r="1.3" fill="#ffffff" opacity="0.87"/><circle cx="3703" cy="911" r="0.6" fill="#ffffff" opacity="0.80"/><circle cx="3743" cy="32" r="0.9" fill="#ffffff" opacity="0.88"/><circle cx="3105" cy="784" r="1.3" fill="#ffffff" opacity="0.91"/><circle cx="2946" cy="775" r="0.8" fill="#ffffff" opacity="0.63"/><circle cx="3348" cy="871" r="1.3" fill="#ffffff" opacity="0.25"/><circle cx="1434" cy="615" r="1.4" fill="#ffffff" opacity="0.67"/><circle cx="2348" cy="173" r="1.0" fill="#ffffff" opacity="0.54"/><circle cx="336" cy="628" r="4.3" fill="#ffffff" opacity="0.11"/><circle cx="336" cy="628" r="1.9" fill="#ffffff" opacity="0.76"/><circle cx="1141" cy="639" r="0.9" fill="#ffffff" opacity="0.54"/><circle cx="993" cy="371" r="1.3" fill="#ffffff" opacity="0.25"/><circle cx="2247" cy="396" r="1.3" fill="#ffffff" opacity="0.39"/><circle cx="2974" cy="157" r="0.8" fill="#ffffff" opacity="0.41"/><circle cx="1134" cy="369" r="1.2" fill="#ffffff" opacity="0.94"/><circle cx="3080" cy="180" r="34" fill="#fff5fb" opacity="0.95"/><circle cx="3080" cy="180" r="60" fill="#ffd7ef" opacity="0.18"/><path d="M 0 1080 L 0 806 L 175 594 L 453 730 L 621 639 L 831 708 L 1108 650 L 1281 752 L 1516 677 L 1689 678 L 1878 722 L 2099 752 L 2326 638 L 2559 763 L 2791 642 L 2996 710 L 3207 690 L 3420 718 L 3598 649 L 3840 664 L 3840 760 L 3840 1080 Z" fill="#2a1440" opacity="0.85"/><path d="M 0 1080 L 0 788 L 316 764 L 604 895 L 889 716 L 1158 753 L 1327 744 L 1702 871 L 1902 740 L 2230 838 L 2426 657 L 2678 800 L 3057 733 L 3320 727 L 3584 756 L 3793 757 L 3840 850 L 3840 1080 Z" fill="#180b2c" opacity="0.95"/><path d="M 0 1080 L 0 916 L 398 792 L 640 901 L 1026 870 L 1341 794 L 1646 807 L 1973 946 L 2264 746 L 2564 807 L 2904 714 L 3207 880 L 3582 837 L 3788 768 L 3840 960 L 3840 1080 Z" fill="#0b0616" opacity="1.0"/><text x="96" y="986" font-family="DejaVu Sans Mono, monospace" font-size="30" fill="#f4e9ff" opacity="0.92" letter-spacing="1">omaxian</text><text x="96" y="1024" font-family="DejaVu Sans Mono, monospace" font-size="19" fill="#c9a8e8" opacity="0.8">= omakase + x11 + debian</text></svg>