<svg xmlns="http://www.w3.org/2000/svg" width="3840" height="1080" viewBox="0 0 3840 1080"><defs>
<linearGradient id="sky3" x1="0" y1="0" x2="0" y2="1">
  <stop offset="0" stop-color="#160a2e"/><stop offset="0.4" stop-color="#43225f"/>
  <stop offset="0.68" stop-color="#a1487a"/><stop offset="0.85" stop-color="#f2905f"/>
  <stop offset="1" stop-color="#ffcf7d"/>
</linearGradient>
<radialGradient id="sun3" cx="0.5" cy="0.5" r="0.5">
  <stop offset="0" stop-color="#fff3d6"/><stop offset="0.55" stop-color="#ffd27a"/>
  <stop offset="1" stop-color="#ff9d5c" stop-opacity="0"/>
</radialGradient>
<linearGradient id="dune3a" x1="0" y1="0" x2="0" y2="1">
  <stop offset="0" stop-color="#3a1650"/><stop offset="1" stop-color="#1c0a30"/>
</linearGradient>
<linearGradient id="dune3b" x1="0" y1="0" x2="0" y2="1">
  <stop offset="0" stop-color="#24093c"/><stop offset="1" stop-color="#0d0418"/>
</linearGradient>
<linearGradient id="bandy" x1="0" y1="0" x2="0" y2="1">
  <stop offset="0" stop-color="#1d0c35" stop-opacity="0"/>
  <stop offset="0.5" stop-color="#1d0c35" stop-opacity="0.8"/>
  <stop offset="1" stop-color="#1d0c35" stop-opacity="0"/>
</linearGradient>
<filter id="bandblur" x="-5%" y="-120%" width="110%" height="340%">
  <feGaussianBlur stdDeviation="6"/>
</filter>
</defs><rect width="3840" height="1080" fill="url(#sky3)"/><circle cx="24" cy="250" r="0.6" fill="#ffe9f0" opacity="0.64"/><circle cx="1985" cy="375" r="1.2" fill="#ffe9f0" opacity="0.52"/><circle cx="1420" cy="289" r="1.1" fill="#ffe9f0" opacity="0.62"/><circle cx="3607" cy="414" r="1.1" fill="#ffe9f0" opacity="0.83"/><circle cx="1814" cy="237" r="1.2" fill="#ffe9f0" opacity="0.74"/><circle cx="1826" cy="185" r="1.0" fill="#ffe9f0" opacity="0.26"/><circle cx="752" cy="131" r="0.6" fill="#ffe9f0" opacity="0.65"/><circle cx="1519" cy="483" r="1.3" fill="#ffe9f0" opacity="0.51"/><circle cx="2436" cy="532" r="0.8" fill="#ffe9f0" opacity="0.29"/><circle cx="2712" cy="99" r="1.0" fill="#ffe9f0" opacity="0.74"/><circle cx="913" cy="460" r="1.1" fill="#ffe9f0" opacity="0.94"/><circle cx="2747" cy="20" r="0.5" fill="#ffe9f0" opacity="0.54"/><circle cx="3116" cy="29" r="0.7" fill="#ffe9f0" opacity="0.85"/><circle cx="3767" cy="226" r="1.0" fill="#ffe9f0" opacity="0.55"/><circle cx="90" cy="227" r="1.3" fill="#ffe9f0" opacity="0.29"/><circle cx="341" cy="481" r="0.7" fill="#ffe9f0" opacity="0.69"/><circle cx="1849" cy="447" r="1.0" fill="#ffe9f0" opacity="0.64"/><circle cx="2550" cy="282" r="0.7" fill="#ffe9f0" opacity="0.59"/><circle cx="223" cy="255" r="0.6" fill="#ffe9f0" opacity="0.56"/><circle cx="119" cy="269" r="0.6" fill="#ffe9f0" opacity="0.77"/><circle cx="523" cy="123" r="1.2" fill="#ffe9f0" opacity="0.68"/><circle cx="19" cy="233" r="1.2" fill="#ffe9f0" opacity="0.34"/><circle cx="1619" cy="83" r="0.7" fill="#ffe9f0" opacity="0.57"/><circle cx="478" cy="265" r="1.2" fill="#ffe9f0" opacity="0.42"/><circle cx="3146" cy="215" r="0.7" fill="#ffe9f0" opacity="0.86"/><circle cx="3014" cy="341" r="3.6" fill="#ffe9f0" opacity="0.08"/><circle cx="3014" cy="341" r="1.6" fill="#ffe9f0" opacity="0.56"/><circle cx="656" cy="435" r="1.3" fill="#ffe9f0" opacity="0.94"/><circle cx="2342" cy="48" r="1.3" fill="#ffe9f0" opacity="0.50"/><circle cx="1461" cy="192" r="1.3" fill="#ffe9f0" opacity="0.53"/><circle cx="2315" cy="320" r="0.7" fill="#ffe9f0" opacity="0.27"/><circle cx="424" cy="338" r="0.6" fill="#ffe9f0" opacity="0.93"/><circle cx="55" cy="298" r="1.0" fill="#ffe9f0" opacity="0.28"/><circle cx="3756" cy="45" r="0.7" fill="#ffe9f0" opacity="0.44"/><circle cx="3241" cy="306" r="1.4" fill="#ffe9f0" opacity="0.36"/><circle cx="1365" cy="435" r="1.0" fill="#ffe9f0" opacity="0.92"/><circle cx="2028" cy="239" r="1.1" fill="#ffe9f0" opacity="0.54"/><circle cx="65" cy="23" r="0.9" fill="#ffe9f0" opacity="0.86"/><circle cx="1963" cy="478" r="1.0" fill="#ffe9f0" opacity="0.93"/><circle cx="3066" cy="505" r="1.1" fill="#ffe9f0" opacity="0.72"/><circle cx="3344" cy="150" r="0.6" fill="#ffe9f0" opacity="0.79"/><circle cx="1994" cy="183" r="5.4" fill="#ffe9f0" opacity="0.11"/><circle cx="1994" cy="183" r="2.4" fill="#ffe9f0" opacity="0.72"/><circle cx="3475" cy="39" r="1.1" fill="#ffe9f0" opacity="0.89"/><circle cx="1280" cy="3" r="1.1" fill="#ffe9f0" opacity="0.27"/><circle cx="2437" cy="79" r="0.7" fill="#ffe9f0" opacity="0.95"/><circle cx="1492" cy="195" r="5.4" fill="#ffe9f0" opacity="0.12"/><circle cx="1492" cy="195" r="2.5" fill="#ffe9f0" opacity="0.82"/><circle cx="288" cy="101" r="1.0" fill="#ffe9f0" opacity="0.43"/><circle cx="2122" cy="527" r="0.9" fill="#ffe9f0" opacity="0.70"/><circle cx="113" cy="490" r="1.3" fill="#ffe9f0" opacity="0.56"/><circle cx="3005" cy="393" r="0.5" fill="#ffe9f0" opacity="0.40"/><circle cx="577" cy="55" r="0.5" fill="#ffe9f0" opacity="0.60"/><circle cx="1081" cy="102" r="1.3" fill="#ffe9f0" opacity="0.75"/><circle cx="2239" cy="134" r="1.3" fill="#ffe9f0" opacity="0.44"/><circle cx="1775" cy="465" r="0.5" fill="#ffe9f0" opacity="0.87"/><circle cx="2113" cy="165" r="0.8" fill="#ffe9f0" opacity="0.85"/><circle cx="3657" cy="262" r="1.0" fill="#ffe9f0" opacity="0.42"/><circle cx="677" cy="383" r="0.7" fill="#ffe9f0" opacity="0.77"/><circle cx="856" cy="479" r="0.6" fill="#ffe9f0" opacity="0.87"/><circle cx="2956" cy="267" r="0.8" fill="#ffe9f0" opacity="0.56"/><circle cx="716" cy="163" r="0.9" fill="#ffe9f0" opacity="0.27"/><circle cx="729" cy="434" r="4.4" fill="#ffe9f0" opacity="0.06"/><circle cx="729" cy="434" r="2.0" fill="#ffe9f0" opacity="0.42"/><circle cx="1946" cy="251" r="0.7" fill="#ffe9f0" opacity="0.50"/><circle cx="2873" cy="498" r="1.3" fill="#ffe9f0" opacity="0.48"/><circle cx="2113" cy="18" r="1.3" fill="#ffe9f0" opacity="0.38"/><circle cx="1830" cy="389" r="1.0" fill="#ffe9f0" opacity="0.65"/><circle cx="2383" cy="527" r="0.9" fill="#ffe9f0" opacity="0.50"/><circle cx="146" cy="413" r="0.7" fill="#ffe9f0" opacity="0.71"/><circle cx="11" cy="234" r="1.1" fill="#ffe9f0" opacity="0.95"/><circle cx="1210" cy="162" r="0.7" fill="#ffe9f0" opacity="0.56"/><circle cx="1952" cy="63" r="0.6" fill="#ffe9f0" opacity="0.56"/><circle cx="2288" cy="294" r="0.9" fill="#ffe9f0" opacity="0.42"/><circle cx="3288" cy="286" r="1.3" fill="#ffe9f0" opacity="0.39"/><circle cx="2366" cy="153" r="1.4" fill="#ffe9f0" opacity="0.40"/><circle cx="1936" cy="291" r="0.6" fill="#ffe9f0" opacity="0.95"/><circle cx="1026" cy="311" r="0.7" fill="#ffe9f0" opacity="0.70"/><circle cx="1277" cy="500" r="0.6" fill="#ffe9f0" opacity="0.59"/><circle cx="3201" cy="456" r="0.7" fill="#ffe9f0" opacity="0.83"/><circle cx="2306" cy="58" r="0.8" fill="#ffe9f0" opacity="0.66"/><circle cx="308" cy="49" r="1.0" fill="#ffe9f0" opacity="0.30"/><circle cx="3040" cy="503" r="0.7" fill="#ffe9f0" opacity="0.74"/><circle cx="858" cy="507" r="0.8" fill="#ffe9f0" opacity="0.33"/><circle cx="3054" cy="389" r="0.9" fill="#ffe9f0" opacity="0.74"/><circle cx="1714" cy="471" r="1.2" fill="#ffe9f0" opacity="0.60"/><circle cx="445" cy="368" r="1.2" fill="#ffe9f0" opacity="0.63"/><circle cx="1480" cy="114" r="0.6" fill="#ffe9f0" opacity="0.27"/><circle cx="3448" cy="526" r="0.6" fill="#ffe9f0" opacity="0.67"/><circle cx="2769" cy="229" r="0.9" fill="#ffe9f0" opacity="0.28"/><circle cx="3209" cy="114" r="1.3" fill="#ffe9f0" opacity="0.37"/><circle cx="2061" cy="405" r="1.0" fill="#ffe9f0" opacity="0.72"/><circle cx="1165" cy="236" r="0.8" fill="#ffe9f0" opacity="0.47"/><circle cx="740" cy="249" r="0.6" fill="#ffe9f0" opacity="0.34"/><circle cx="3814" cy="260" r="0.7" fill="#ffe9f0" opacity="0.40"/><circle cx="3780" cy="238" r="1.2" fill="#ffe9f0" opacity="0.32"/><circle cx="165" cy="316" r="4.9" fill="#ffe9f0" opacity="0.10"/><circle cx="165" cy="316" r="2.2" fill="#ffe9f0" opacity="0.68"/><circle cx="596" cy="40" r="1.1" fill="#ffe9f0" opacity="0.72"/><circle cx="1277" cy="283" r="0.9" fill="#ffe9f0" opacity="0.37"/><circle cx="2775" cy="220" r="0.9" fill="#ffe9f0" opacity="0.39"/><circle cx="1188" cy="508" r="0.8" fill="#ffe9f0" opacity="0.43"/><circle cx="2151" cy="274" r="0.7" fill="#ffe9f0" opacity="0.67"/><circle cx="3313" cy="141" r="0.9" fill="#ffe9f0" opacity="0.88"/><circle cx="1514" cy="215" r="0.7" fill="#ffe9f0" opacity="0.95"/><circle cx="3782" cy="357" r="1.3" fill="#ffe9f0" opacity="0.63"/><circle cx="690" cy="511" r="1.2" fill="#ffe9f0" opacity="0.52"/><circle cx="1975" cy="9" r="1.4" fill="#ffe9f0" opacity="0.61"/><circle cx="2031" cy="332" r="1.1" fill="#ffe9f0" opacity="0.49"/><circle cx="3186" cy="23" r="1.3" fill="#ffe9f0" opacity="0.65"/><circle cx="3315" cy="344" r="1.2" fill="#ffe9f0" opacity="0.58"/><circle cx="926" cy="251" r="1.4" fill="#ffe9f0" opacity="0.73"/><circle cx="2167" cy="437" r="0.6" fill="#ffe9f0" opacity="0.91"/><circle cx="1929" cy="120" r="1.3" fill="#ffe9f0" opacity="0.69"/><circle cx="955" cy="279" r="0.6" fill="#ffe9f0" opacity="0.50"/><circle cx="3521" cy="230" r="1.0" fill="#ffe9f0" opacity="0.38"/><circle cx="1962" cy="258" r="1.2" fill="#ffe9f0" opacity="0.82"/><circle cx="1264" cy="140" r="0.8" fill="#ffe9f0" opacity="0.47"/><circle cx="2276" cy="113" r="0.8" fill="#ffe9f0" opacity="0.94"/><circle cx="1526" cy="342" r="0.6" fill="#ffe9f0" opacity="0.35"/><circle cx="587" cy="142" r="0.9" fill="#ffe9f0" opacity="0.51"/><circle cx="3337" cy="498" r="0.8" fill="#ffe9f0" opacity="0.30"/><circle cx="584" cy="407" r="1.3" fill="#ffe9f0" opacity="0.93"/><circle cx="1073" cy="296" r="1.3" fill="#ffe9f0" opacity="0.27"/><circle cx="1532" cy="374" r="5.1" fill="#ffe9f0" opacity="0.11"/><circle cx="1532" cy="374" r="2.3" fill="#ffe9f0" opacity="0.75"/><circle cx="2136" cy="331" r="1.1" fill="#ffe9f0" opacity="0.43"/><circle cx="2856" cy="85" r="1.3" fill="#ffe9f0" opacity="0.81"/><circle cx="3097" cy="479" r="1.0" fill="#ffe9f0" opacity="0.71"/><circle cx="2132" cy="388" r="1.1" fill="#ffe9f0" opacity="0.54"/><circle cx="2247" cy="188" r="1.0" fill="#ffe9f0" opacity="0.90"/><circle cx="1645" cy="408" r="1.3" fill="#ffe9f0" opacity="0.32"/><circle cx="3838" cy="207" r="0.8" fill="#ffe9f0" opacity="0.37"/><circle cx="822" cy="341" r="0.9" fill="#ffe9f0" opacity="0.78"/><circle cx="2638" cy="70" r="1.3" fill="#ffe9f0" opacity="0.32"/><circle cx="356" cy="251" r="0.9" fill="#ffe9f0" opacity="0.38"/><circle cx="1196" cy="115" r="0.9" fill="#ffe9f0" opacity="0.81"/><circle cx="1164" cy="479" r="0.7" fill="#ffe9f0" opacity="0.29"/><circle cx="79" cy="524" r="1.3" fill="#ffe9f0" opacity="0.90"/><circle cx="1132" cy="432" r="1.4" fill="#ffe9f0" opacity="0.26"/><circle cx="3700" cy="89" r="1.2" fill="#ffe9f0" opacity="0.79"/><circle cx="3586" cy="349" r="0.7" fill="#ffe9f0" opacity="0.83"/><circle cx="2835" cy="516" r="1.3" fill="#ffe9f0" opacity="0.30"/><circle cx="2040" cy="400" r="1.3" fill="#ffe9f0" opacity="0.49"/><circle cx="312" cy="524" r="4.1" fill="#ffe9f0" opacity="0.10"/><circle cx="312" cy="524" r="1.8" fill="#ffe9f0" opacity="0.65"/><circle cx="978" cy="442" r="1.0" fill="#ffe9f0" opacity="0.78"/><circle cx="1508" cy="537" r="0.7" fill="#ffe9f0" opacity="0.71"/><circle cx="1906" cy="322" r="0.5" fill="#ffe9f0" opacity="0.39"/><circle cx="3041" cy="82" r="0.7" fill="#ffe9f0" opacity="0.40"/><circle cx="1867" cy="397" r="1.3" fill="#ffe9f0" opacity="0.52"/><circle cx="2719" cy="92" r="1.1" fill="#ffe9f0" opacity="0.92"/><circle cx="878" cy="226" r="0.7" fill="#ffe9f0" opacity="0.69"/><circle cx="3413" cy="137" r="1.3" fill="#ffe9f0" opacity="0.74"/><circle cx="2612" cy="7" r="1.0" fill="#ffe9f0" opacity="0.62"/><circle cx="578" cy="190" r="1.2" fill="#ffe9f0" opacity="0.27"/><circle cx="64" cy="277" r="0.8" fill="#ffe9f0" opacity="0.36"/><circle cx="9" cy="268" r="1.3" fill="#ffe9f0" opacity="0.53"/><circle cx="1261" cy="494" r="0.8" fill="#ffe9f0" opacity="0.46"/><circle cx="1880" cy="65" r="1.1" fill="#ffe9f0" opacity="0.73"/><circle cx="2358" cy="457" r="0.6" fill="#ffe9f0" opacity="0.84"/><circle cx="1011" cy="247" r="0.7" fill="#ffe9f0" opacity="0.89"/><circle cx="1848" cy="409" r="0.8" fill="#ffe9f0" opacity="0.85"/><circle cx="1293" cy="221" r="1.1" fill="#ffe9f0" opacity="0.32"/><circle cx="808" cy="48" r="1.3" fill="#ffe9f0" opacity="0.27"/><circle cx="1773" cy="369" r="1.4" fill="#ffe9f0" opacity="0.66"/><circle cx="3085" cy="39" r="0.6" fill="#ffe9f0" opacity="0.31"/><circle cx="1380" cy="102" r="0.8" fill="#ffe9f0" opacity="0.92"/><circle cx="1978" cy="536" r="1.1" fill="#ffe9f0" opacity="0.34"/><circle cx="3545" cy="282" r="1.0" fill="#ffe9f0" opacity="0.36"/><circle cx="2475" cy="100" r="0.6" fill="#ffe9f0" opacity="0.58"/><circle cx="3121" cy="374" r="0.8" fill="#ffe9f0" opacity="0.79"/><circle cx="98" cy="233" r="1.0" fill="#ffe9f0" opacity="0.41"/><circle cx="3651" cy="358" r="1.3" fill="#ffe9f0" opacity="0.30"/><circle cx="619" cy="20" r="0.9" fill="#ffe9f0" opacity="0.87"/><circle cx="2567" cy="272" r="0.7" fill="#ffe9f0" opacity="0.58"/><circle cx="1857" cy="394" r="0.9" fill="#ffe9f0" opacity="0.58"/><circle cx="1058" cy="463" r="0.6" fill="#ffe9f0" opacity="0.68"/><circle cx="3351" cy="72" r="1.3" fill="#ffe9f0" opacity="0.68"/><circle cx="725" cy="530" r="0.9" fill="#ffe9f0" opacity="0.31"/><circle cx="432" cy="390" r="4.8" fill="#ffe9f0" opacity="0.11"/><circle cx="432" cy="390" r="2.2" fill="#ffe9f0" opacity="0.75"/><circle cx="2929" cy="89" r="0.7" fill="#ffe9f0" opacity="0.75"/><circle cx="1490" cy="16" r="0.5" fill="#ffe9f0" opacity="0.41"/><circle cx="3252" cy="296" r="4.2" fill="#ffe9f0" opacity="0.07"/><circle cx="3252" cy="296" r="1.9" fill="#ffe9f0" opacity="0.49"/><circle cx="3400" cy="374" r="0.7" fill="#ffe9f0" opacity="0.83"/><circle cx="544" cy="428" r="1.1" fill="#ffe9f0" opacity="0.77"/><circle cx="3655" cy="491" r="1.2" fill="#ffe9f0" opacity="0.32"/><circle cx="618" cy="172" r="1.3" fill="#ffe9f0" opacity="0.30"/><circle cx="548" cy="170" r="0.9" fill="#ffe9f0" opacity="0.46"/><circle cx="495" cy="429" r="0.7" fill="#ffe9f0" opacity="0.65"/><circle cx="714" cy="334" r="1.0" fill="#ffe9f0" opacity="0.92"/><circle cx="3383" cy="356" r="0.7" fill="#ffe9f0" opacity="0.70"/><circle cx="791" cy="358" r="1.1" fill="#ffe9f0" opacity="0.43"/><circle cx="3251" cy="244" r="1.1" fill="#ffe9f0" opacity="0.40"/><circle cx="910" cy="441" r="1.2" fill="#ffe9f0" opacity="0.62"/><circle cx="1715" cy="206" r="1.4" fill="#ffe9f0" opacity="0.26"/><circle cx="498" cy="60" r="0.8" fill="#ffe9f0" opacity="0.60"/><circle cx="3268" cy="373" r="0.7" fill="#ffe9f0" opacity="0.84"/><circle cx="3327" cy="101" r="1.0" fill="#ffe9f0" opacity="0.81"/><circle cx="2252" cy="538" r="0.6" fill="#ffe9f0" opacity="0.37"/><circle cx="1713" cy="346" r="1.4" fill="#ffe9f0" opacity="0.83"/><circle cx="2033" cy="420" r="4.6" fill="#ffe9f0" opacity="0.12"/><circle cx="2033" cy="420" r="2.1" fill="#ffe9f0" opacity="0.81"/><circle cx="2598" cy="518" r="5.6" fill="#ffe9f0" opacity="0.06"/><circle cx="2598" cy="518" r="2.6" fill="#ffe9f0" opacity="0.39"/><circle cx="2912" cy="261" r="0.8" fill="#ffe9f0" opacity="0.70"/><circle cx="339" cy="215" r="0.9" fill="#ffe9f0" opacity="0.39"/><circle cx="2971" cy="44" r="0.7" fill="#ffe9f0" opacity="0.87"/><circle cx="674" cy="92" r="1.1" fill="#ffe9f0" opacity="0.67"/><circle cx="2762" cy="521" r="0.7" fill="#ffe9f0" opacity="0.28"/><circle cx="928" cy="522" r="1.0" fill="#ffe9f0" opacity="0.71"/><circle cx="1945" cy="274" r="0.9" fill="#ffe9f0" opacity="0.44"/><circle cx="3061" cy="256" r="0.9" fill="#ffe9f0" opacity="0.32"/><circle cx="3686" cy="514" r="0.6" fill="#ffe9f0" opacity="0.94"/><circle cx="3014" cy="529" r="0.8" fill="#ffe9f0" opacity="0.78"/><circle cx="2862" cy="81" r="5.7" fill="#ffe9f0" opacity="0.05"/><circle cx="2862" cy="81" r="2.6" fill="#ffe9f0" opacity="0.36"/><circle cx="1368" cy="196" r="1.1" fill="#ffe9f0" opacity="0.83"/><circle cx="949" cy="83" r="1.2" fill="#ffe9f0" opacity="0.66"/><circle cx="1732" cy="238" r="1.2" fill="#ffe9f0" opacity="0.48"/><circle cx="18" cy="224" r="0.7" fill="#ffe9f0" opacity="0.69"/><circle cx="2825" cy="352" r="0.8" fill="#ffe9f0" opacity="0.79"/><circle cx="247" cy="19" r="1.1" fill="#ffe9f0" opacity="0.45"/><circle cx="132" cy="57" r="1.1" fill="#ffe9f0" opacity="0.48"/><circle cx="2096" cy="91" r="1.1" fill="#ffe9f0" opacity="0.46"/><circle cx="3189" cy="41" r="0.7" fill="#ffe9f0" opacity="0.46"/><circle cx="1828" cy="478" r="3.7" fill="#ffe9f0" opacity="0.11"/><circle cx="1828" cy="478" r="1.7" fill="#ffe9f0" opacity="0.74"/><circle cx="1987" cy="458" r="0.8" fill="#ffe9f0" opacity="0.88"/><circle cx="2450" cy="380" r="1.3" fill="#ffe9f0" opacity="0.63"/><circle cx="3391" cy="56" r="0.5" fill="#ffe9f0" opacity="0.53"/><circle cx="2486" cy="120" r="0.7" fill="#ffe9f0" opacity="0.33"/><circle cx="833" cy="69" r="0.7" fill="#ffe9f0" opacity="0.51"/><circle cx="1227" cy="232" r="1.1" fill="#ffe9f0" opacity="0.34"/><circle cx="24" cy="266" r="1.2" fill="#ffe9f0" opacity="0.49"/><circle cx="2845" cy="212" r="1.4" fill="#ffe9f0" opacity="0.82"/><circle cx="1625" cy="170" r="1.2" fill="#ffe9f0" opacity="0.53"/><circle cx="3024" cy="314" r="1.3" fill="#ffe9f0" opacity="0.77"/><circle cx="497" cy="171" r="1.1" fill="#ffe9f0" opacity="0.84"/><circle cx="28" cy="321" r="0.5" fill="#ffe9f0" opacity="0.50"/><circle cx="1746" cy="187" r="0.9" fill="#ffe9f0" opacity="0.48"/><circle cx="1487" cy="80" r="0.8" fill="#ffe9f0" opacity="0.73"/><circle cx="1439" cy="200" r="1.2" fill="#ffe9f0" opacity="0.41"/><circle cx="1072" cy="343" r="0.6" fill="#ffe9f0" opacity="0.28"/><circle cx="3369" cy="201" r="1.0" fill="#ffe9f0" opacity="0.95"/><circle cx="1237" cy="291" r="1.4" fill="#ffe9f0" opacity="0.42"/><circle cx="2998" cy="527" r="1.1" fill="#ffe9f0" opacity="0.44"/><circle cx="2323" cy="402" r="1.1" fill="#ffe9f0" opacity="0.61"/><circle cx="1466" cy="288" r="0.9" fill="#ffe9f0" opacity="0.26"/><circle cx="2213" cy="452" r="1.2" fill="#ffe9f0" opacity="0.44"/><circle cx="3259" cy="396" r="0.5" fill="#ffe9f0" opacity="0.69"/><circle cx="1443" cy="80" r="1.3" fill="#ffe9f0" opacity="0.25"/><circle cx="1270" cy="529" r="0.9" fill="#ffe9f0" opacity="0.53"/><circle cx="2196" cy="400" r="1.1" fill="#ffe9f0" opacity="0.28"/><circle cx="589" cy="243" r="0.7" fill="#ffe9f0" opacity="0.30"/><circle cx="814" cy="494" r="1.1" fill="#ffe9f0" opacity="0.89"/><circle cx="581" cy="42" r="4.7" fill="#ffe9f0" opacity="0.11"/><circle cx="581" cy="42" r="2.1" fill="#ffe9f0" opacity="0.71"/><circle cx="2505" cy="324" r="4.2" fill="#ffe9f0" opacity="0.13"/><circle cx="2505" cy="324" r="1.9" fill="#ffe9f0" opacity="0.86"/><circle cx="3129" cy="161" r="1.0" fill="#ffe9f0" opacity="0.71"/><circle cx="1269" cy="263" r="1.1" fill="#ffe9f0" opacity="0.62"/><circle cx="1677" cy="425" r="1.0" fill="#ffe9f0" opacity="0.84"/><circle cx="777" cy="284" r="1.0" fill="#ffe9f0" opacity="0.82"/><circle cx="3250" cy="259" r="0.7" fill="#ffe9f0" opacity="0.80"/><circle cx="197" cy="509" r="1.0" fill="#ffe9f0" opacity="0.26"/><circle cx="1541" cy="154" r="0.9" fill="#ffe9f0" opacity="0.77"/><circle cx="503" cy="533" r="0.9" fill="#ffe9f0" opacity="0.84"/><circle cx="2165" cy="48" r="0.6" fill="#ffe9f0" opacity="0.69"/><circle cx="2542" cy="57" r="4.7" fill="#ffe9f0" opacity="0.10"/><circle cx="2542" cy="57" r="2.1" fill="#ffe9f0" opacity="0.70"/><circle cx="616" cy="407" r="0.9" fill="#ffe9f0" opacity="0.79"/><circle cx="3516" cy="493" r="0.8" fill="#ffe9f0" opacity="0.94"/><circle cx="3614" cy="392" r="0.5" fill="#ffe9f0" opacity="0.38"/><circle cx="956" cy="458" r="1.2" fill="#ffe9f0" opacity="0.57"/><circle cx="3712" cy="6" r="1.2" fill="#ffe9f0" opacity="0.84"/><circle cx="392" cy="464" r="0.8" fill="#ffe9f0" opacity="0.74"/><circle cx="3669" cy="406" r="1.2" fill="#ffe9f0" opacity="0.34"/><circle cx="2640" cy="129" r="1.2" fill="#ffe9f0" opacity="0.35"/><circle cx="791" cy="374" r="1.1" fill="#ffe9f0" opacity="0.41"/><circle cx="894" cy="67" r="1.3" fill="#ffe9f0" opacity="0.71"/><circle cx="1973" cy="122" r="0.9" fill="#ffe9f0" opacity="0.34"/><circle cx="762" cy="308" r="1.1" fill="#ffe9f0" opacity="0.91"/><circle cx="3723" cy="456" r="5.3" fill="#ffe9f0" opacity="0.09"/><circle cx="3723" cy="456" r="2.4" fill="#ffe9f0" opacity="0.60"/><circle cx="897" cy="533" r="1.2" fill="#ffe9f0" opacity="0.94"/><circle cx="2722" cy="242" r="0.9" fill="#ffe9f0" opacity="0.60"/><circle cx="848" cy="46" r="1.3" fill="#ffe9f0" opacity="0.90"/><circle cx="3023" cy="342" r="1.2" fill="#ffe9f0" opacity="0.28"/><circle cx="2692" cy="503" r="0.7" fill="#ffe9f0" opacity="0.53"/><circle cx="3182" cy="458" r="5.3" fill="#ffe9f0" opacity="0.14"/><circle cx="3182" cy="458" r="2.4" fill="#ffe9f0" opacity="0.93"/><circle cx="2923" cy="85" r="1.1" fill="#ffe9f0" opacity="0.67"/><circle cx="1628" cy="377" r="1.2" fill="#ffe9f0" opacity="0.62"/><circle cx="349" cy="145" r="1.2" fill="#ffe9f0" opacity="0.36"/><circle cx="866" cy="480" r="0.9" fill="#ffe9f0" opacity="0.63"/><circle cx="3135" cy="86" r="1.2" fill="#ffe9f0" opacity="0.48"/><circle cx="784" cy="85" r="0.8" fill="#ffe9f0" opacity="0.78"/><circle cx="2443" cy="92" r="1.4" fill="#ffe9f0" opacity="0.46"/><circle cx="2990" cy="42" r="0.9" fill="#ffe9f0" opacity="0.63"/><circle cx="289" cy="173" r="0.7" fill="#ffe9f0" opacity="0.42"/><circle cx="2157" cy="44" r="1.3" fill="#ffe9f0" opacity="0.64"/><circle cx="396" cy="312" r="0.8" fill="#ffe9f0" opacity="0.86"/><circle cx="2975" cy="475" r="1.3" fill="#ffe9f0" opacity="0.75"/><circle cx="3675" cy="417" r="1.3" fill="#ffe9f0" opacity="0.67"/><circle cx="2510" cy="13" r="0.6" fill="#ffe9f0" opacity="0.29"/><circle cx="1653" cy="329" r="0.9" fill="#ffe9f0" opacity="0.33"/><circle cx="3526" cy="513" r="0.7" fill="#ffe9f0" opacity="0.93"/><circle cx="1321" cy="267" r="1.2" fill="#ffe9f0" opacity="0.35"/><circle cx="2437" cy="303" r="0.9" fill="#ffe9f0" opacity="0.67"/><circle cx="3700" cy="371" r="0.6" fill="#ffe9f0" opacity="0.46"/><circle cx="2687" cy="466" r="5.3" fill="#ffe9f0" opacity="0.12"/><circle cx="2687" cy="466" r="2.4" fill="#ffe9f0" opacity="0.80"/><circle cx="2618" cy="62" r="1.1" fill="#ffe9f0" opacity="0.89"/><circle cx="3268" cy="247" r="1.0" fill="#ffe9f0" opacity="0.79"/><circle cx="1979" cy="207" r="0.8" fill="#ffe9f0" opacity="0.30"/><circle cx="1537" cy="526" r="0.6" fill="#ffe9f0" opacity="0.94"/><circle cx="3383" cy="259" r="0.8" fill="#ffe9f0" opacity="0.88"/><circle cx="316" cy="224" r="1.3" fill="#ffe9f0" opacity="0.30"/><circle cx="1765" cy="57" r="1.0" fill="#ffe9f0" opacity="0.57"/><circle cx="2860" cy="282" r="1.0" fill="#ffe9f0" opacity="0.78"/><circle cx="3486" cy="175" r="0.7" fill="#ffe9f0" opacity="0.89"/><circle cx="2701" cy="80" r="1.0" fill="#ffe9f0" opacity="0.59"/><circle cx="1447" cy="184" r="0.8" fill="#ffe9f0" opacity="0.68"/><circle cx="1002" cy="152" r="0.9" fill="#ffe9f0" opacity="0.41"/><circle cx="3793" cy="515" r="1.0" fill="#ffe9f0" opacity="0.95"/><circle cx="629" cy="268" r="0.9" fill="#ffe9f0" opacity="0.91"/><circle cx="1195" cy="32" r="0.8" fill="#ffe9f0" opacity="0.56"/><circle cx="367" cy="374" r="1.0" fill="#ffe9f0" opacity="0.52"/><circle cx="3109" cy="182" r="0.6" fill="#ffe9f0" opacity="0.31"/><circle cx="1653" cy="118" r="1.2" fill="#ffe9f0" opacity="0.31"/><circle cx="2186" cy="444" r="0.5" fill="#ffe9f0" opacity="0.68"/><circle cx="1977" cy="502" r="1.2" fill="#ffe9f0" opacity="0.91"/><circle cx="926" cy="277" r="1.2" fill="#ffe9f0" opacity="0.88"/><circle cx="839" cy="291" r="1.0" fill="#ffe9f0" opacity="0.37"/><circle cx="1157" cy="157" r="1.0" fill="#ffe9f0" opacity="0.75"/><circle cx="2201" cy="312" r="1.0" fill="#ffe9f0" opacity="0.91"/><circle cx="3367" cy="91" r="1.1" fill="#ffe9f0" opacity="0.34"/><circle cx="2469" cy="161" r="0.6" fill="#ffe9f0" opacity="0.51"/><circle cx="3077" cy="54" r="0.5" fill="#ffe9f0" opacity="0.45"/><circle cx="2920" cy="235" r="0.6" fill="#ffe9f0" opacity="0.66"/><circle cx="614" cy="373" r="0.6" fill="#ffe9f0" opacity="0.34"/><circle cx="248" cy="289" r="0.9" fill="#ffe9f0" opacity="0.57"/><circle cx="1477" cy="174" r="0.9" fill="#ffe9f0" opacity="0.35"/><circle cx="448" cy="405" r="1.0" fill="#ffe9f0" opacity="0.32"/><circle cx="764" cy="107" r="0.7" fill="#ffe9f0" opacity="0.35"/><circle cx="2553" cy="138" r="0.6" fill="#ffe9f0" opacity="0.76"/><circle cx="3503" cy="66" r="1.2" fill="#ffe9f0" opacity="0.51"/><circle cx="2890" cy="19" r="1.0" fill="#ffe9f0" opacity="0.53"/><circle cx="1798" cy="167" r="1.2" fill="#ffe9f0" opacity="0.41"/><circle cx="3488" cy="86" r="4.3" fill="#ffe9f0" opacity="0.06"/><circle cx="3488" cy="86" r="2.0" fill="#ffe9f0" opacity="0.41"/><circle cx="2047" cy="537" r="0.5" fill="#ffe9f0" opacity="0.50"/><circle cx="1587" cy="7" r="0.9" fill="#ffe9f0" opacity="0.70"/><circle cx="1037" cy="134" r="0.6" fill="#ffe9f0" opacity="0.63"/><circle cx="2617" cy="452" r="0.7" fill="#ffe9f0" opacity="0.27"/><circle cx="1425" cy="490" r="1.0" fill="#ffe9f0" opacity="0.67"/><circle cx="1286" cy="191" r="1.1" fill="#ffe9f0" opacity="0.85"/><circle cx="2765" cy="700" r="260" fill="url(#sun3)"/><circle cx="2765" cy="700" r="118" fill="#fff6e3"/><g filter="url(#bandblur)"><rect x="-40" y="628" width="3920" height="34" fill="url(#bandy)" opacity="0.55"/><rect x="-40" y="662" width="3920" height="42" fill="url(#bandy)" opacity="0.7"/><rect x="-40" y="700" width="3920" height="50" fill="url(#bandy)" opacity="0.85"/><rect x="-40" y="742" width="3920" height="42" fill="url(#bandy)" opacity="0.75"/><rect x="-40" y="776" width="3920" height="32" fill="url(#bandy)" opacity="0.6"/></g><path d="M 0 1080 L 0 877 Q 240 908, 480 872 Q 720 832, 960 806 Q 1200 786, 1440 828 Q 1680 873, 1920 889 Q 2160 897, 2400 851 Q 2640 803, 2880 800 Q 3120 804, 3360 851 Q 3600 897, 3840 888 L 3840 1080 Z" fill="url(#dune3a)"/><path d="M 0 1080 L 0 981 Q 240 949, 480 924 Q 720 903, 960 937 Q 1200 974, 1440 991 Q 1680 1002, 1920 963 Q 2160 924, 2400 917 Q 2640 916, 2880 956 Q 3120 996, 3360 992 Q 3600 983, 3840 944 L 3840 1080 Z" fill="url(#dune3b)"/><text x="96" y="180" font-family="DejaVu Sans Mono, monospace" font-size="26" fill="#ffe9c9" opacity="0.95">~$ startx</text><text x="96" y="222" font-family="DejaVu Sans Mono, monospace" font-size="26" fill="#ffd9a8" opacity="0.55">_</text><text x="96" y="990" font-family="DejaVu Sans Mono, monospace" font-size="19" fill="#ffdcb4" opacity="0.85">omaxian = omakase + x11 + debian &#8212; the desktop wakes when you say so</text></svg>